<svg xmlns="http://www.w3.org/2000/svg" xmlns:xlink="http://www.w3.org/1999/xlink" width="15"
    height="15" viewBox="0 0 15 15">
    <path fill="#6d6ba2"
        d="M-7627,1708.5a6.307,6.307,0,0,1-3.669,1.171,6.334,6.334,0,0,1-6.335-6.334,6.336,6.336,0,0,1,6.335-6.335,6.336,6.336,0,0,1,6.333,6.335,6.306,6.306,0,0,1-1.17,3.669l3.5,3.5-1.493,1.493Zm-7.892-5.163a4.228,4.228,0,0,0,4.223,4.223,4.23,4.23,0,0,0,4.223-4.223,4.229,4.229,0,0,0-4.223-4.223A4.227,4.227,0,0,0-7634.887,1703.335Z"
        transform="translate(7637 -1697)" />
</svg>